<?xml version="1.0" encoding="utf-8"?>
<!-- Generator: Adobe Illustrator 28.0.0, SVG Export Plug-In . SVG Version: 6.00 Build 0)  -->
<svg version="1.1"
	 id="svg2606" xmlns:cc="http://creativecommons.org/ns#" xmlns:dc="http://purl.org/dc/elements/1.1/" xmlns:rdf="http://www.w3.org/1999/02/22-rdf-syntax-ns#" xmlns:inkscape="http://www.inkscape.org/namespaces/inkscape" xmlns:svg="http://www.w3.org/2000/svg" xmlns:sodipodi="http://sodipodi.sourceforge.net/DTD/sodipodi-0.dtd"
	 xmlns="http://www.w3.org/2000/svg" xmlns:xlink="http://www.w3.org/1999/xlink" x="0px" y="0px" viewBox="0 0 850 1200"
	 style="enable-background:new 0 0 850 1200;" xml:space="preserve">
<defs>
	
		<inkscape:perspective  id="perspective2614" inkscape:persp3d-origin="372.04724 : 350.78739 : 1" inkscape:vp_x="0 : 526.18109 : 1" inkscape:vp_y="0 : 1000 : 0" inkscape:vp_z="744.09448 : 526.18109 : 1" sodipodi:type="inkscape:persp3d">
		</inkscape:perspective>
</defs>
<sodipodi:namedview  bordercolor="#666666" borderopacity="1.0" gridtolerance="10000" guidetolerance="10" id="base" inkscape:current-layer="layer1" inkscape:cx="631.21444" inkscape:cy="434.79035" inkscape:document-units="px" inkscape:pageopacity="0.0" inkscape:pageshadow="2" inkscape:window-height="683" inkscape:window-width="676" inkscape:window-x="66" inkscape:window-y="68" inkscape:zoom="0.24748737" objecttolerance="10" pagecolor="#ffffff" showgrid="false">
	</sodipodi:namedview>
<g id="澎湖縣">
	<line class="st0" x1="91.2" y1="583.3" x2="91.2" y2="581.9"/>
	<polygon class="st0" points="110.9,573.7 111.8,572.3 109.8,573 109.1,575.5 110.4,576 	"/>
	<polygon class="st0" points="120.1,568.1 117.8,568.5 119.6,569.9 	"/>
	<polygon class="st0" points="75.1,618.7 77.2,617.8 75.3,616.2 	"/>
	<polygon class="st0" points="80.2,621.8 79.1,622.4 74.8,624.7 73.2,624 73.6,626.3 79,625.9 83.1,623.4 82.7,622.2 	"/>
	<polygon class="st0" points="68.7,599.7 69.6,599.3 72.2,599.7 73.4,600.2 74.7,600.2 75.9,599.7 75.5,598.5 74.8,597.6 
		74.4,596.6 74.3,595.4 75.8,594 74.6,591.1 78.3,587.8 77.9,586.9 76.9,586.2 76.7,585 77.3,582.9 76.8,581.7 76.2,580.9 
		75.9,579.8 76.3,578.8 77.3,578.2 80,578.2 82.3,577.6 83.3,577 83.5,575.7 82.8,575.1 81.7,576.1 80.6,576.4 79.4,575.8 
		77.3,573.4 77.6,572.2 77.2,571.2 76.1,571.3 75.3,572 73.1,576.1 72.1,577.1 71.5,578.3 71.3,579.1 72.1,580 70.6,581.4 71,582.5 
		72,583 72.8,583.7 73.2,584.5 72.3,584.9 71.6,587 72,588.2 70.8,588.6 69.5,588.6 68.4,589.3 68.8,590.3 70.2,590.6 72,592.9 
		72,594.2 71.5,595.3 70.5,596 69.8,596.9 68.8,597.6 67.8,597.9 66,596.3 64.8,596.7 63.9,597.4 63.3,598.4 61.8,599.7 61.2,600.6 
		62.1,601.1 63.4,601.1 64,600.3 68,600.3 	"/>
	<polygon class="st0" points="89.1,570.9 89.7,572 90.3,571.4 91.2,569.3 92.1,568.7 94.9,568.8 95.4,570 95.4,571.3 96.1,572.1 
		96.5,573.1 98.7,575.4 99.1,576.6 100,576.8 100.8,575.8 101,574.5 103.2,573.3 104.5,573.1 104.4,571.9 103.2,570.7 102.7,569.9 
		103.5,568.5 102.1,568.4 100.4,565.3 99.7,565.1 98.9,565.6 96.8,565 96.5,563.9 95.2,563.7 94,564.2 93.5,565.3 92.2,565.6 
		89.9,565.3 88.8,564.8 88.5,564.2 87,566.6 86,567.6 86.1,568.8 	"/>
	<polygon class="st0" points="102,579.8 103.7,577.7 102.9,577.2 101.6,577.2 100.4,577.5 99.2,578 97.8,579.9 99.6,581.6 
		100.9,581.6 101.9,581 	"/>
	<polygon class="st0" points="102.4,585.1 103.7,585.1 104.9,584.8 105.3,583.6 104.7,582.7 103.5,582.1 102.5,582 101.3,582.5 
		100.9,583.5 101.3,584.6 	"/>
	<polygon class="st0" points="125.6,599.9 124.8,597 125.2,595.9 125.2,594.6 124.7,593.4 122.3,590.8 121.7,588.7 121,589.5 
		120.6,592 119.4,591.8 118.8,590.6 118,589.7 118.4,588.9 119.1,588.4 117.4,586.8 116.2,586.4 115.4,587.2 113.7,590.3 
		112.7,590.1 111.8,590.4 110.3,591.9 110,593 109.3,593.2 109.2,589.2 110.2,587.1 108.7,587.3 107.9,587.8 102.7,588.7 
		101.9,589.3 102,590.5 102.7,591.5 102.7,592.8 102.2,593.7 101,594.1 100.2,595.1 100.2,597.9 99.5,598.7 98.2,598.1 97.2,597.2 
		97.4,595.4 96,595.2 95.8,594 96.5,592.8 96.6,592 95.4,590.8 92.5,593.3 91.3,593.7 90,593.7 90.6,594.9 90.6,596.2 90.3,597.4 
		88.5,598.9 88.3,600.2 89.3,600.7 91.7,599.6 92.7,598.9 94.1,599 95,599.6 95.8,600.5 93.1,603.4 91.8,603.6 89.1,603.2 
		90.6,604.9 92.7,605.8 94.3,605.6 95.5,604.9 99.5,605 100.3,606.1 100.7,607.3 99.4,609.4 99.2,610.1 100.4,610.9 100.3,611.9 
		99.2,613 98,612.9 97.2,612.2 96.1,611.7 94.8,611.9 93.2,615.3 91.7,616.9 92.3,618 94.9,618.3 96.3,618.1 98.1,617.5 99.6,617.4 
		101.2,619.2 102.4,618.9 102.6,617.7 103.7,616.7 103.8,615.5 104.2,614.3 103.1,613.7 102.9,612.7 103.8,611.7 104.4,610.5 
		108.9,607 110.1,606.8 112.3,604 112.7,602.9 113.7,602.1 119.9,601.9 121.8,601 122.6,601.6 122.9,602.9 123.5,604.1 124.6,604.8 
		125.8,604.5 126.8,604 128.2,604 128.7,603.2 	"/>
	<polygon class="st0" points="86.4,607.6 86.1,604.7 85.2,604 85.2,603.6 84.7,604.9 83.7,605.3 83.3,606.5 83.4,609.1 84.9,609.8 
		85.3,610.5 86.2,611.3 86.6,610.4 85.9,609.5 87.1,608.4 	"/>
	<polygon class="st0" points="92.4,612.4 91.7,611.5 90.6,610.7 90.1,609.9 89.8,610.9 87.5,611.7 87.5,613.1 91.9,613.2 	"/>
	<polygon class="st0" points="102.4,545.5 103.5,543.7 104.8,542.7 106.4,543 107.7,542.4 108.8,541.3 104.6,538.4 103.6,538.5 
		102.6,540.2 100.7,543.4 101.1,545 	"/>
	<polygon class="st0" points="15.5,649.7 14.1,652.9 15.5,653.8 17.1,653.4 18.5,652.5 18.5,651.2 16.2,649.4 	"/>
	<polygon class="st0" points="81.2,661.9 79.6,662.5 77.6,664.8 73.1,662.1 72.6,660.7 72.6,656.9 71.6,657.2 69.7,657.1 67,654.7 
		67.9,656.6 67.9,665.3 67.5,666.9 66,667.5 66.9,668.8 72.5,668.9 72.9,668 72.3,666.6 72.9,665.3 74.5,664.8 75.8,666.2 
		77.1,667.1 78.6,666.6 79.5,665.6 81.4,665.6 82.5,664.8 82,663.2 	"/>
	<polygon class="st0" points="77,695.1 77.3,697 78.9,697.1 77.9,695.7 	"/>
	<polygon class="st0" points="80,699.9 79,701.3 80.6,700.8 82.4,698.5 80.5,697.9 	"/>
	<polygon class="st0" points="120.8,699.3 120,699.4 119.1,701.3 119.9,702.4 119.9,703.8 121,704.9 121.8,704.8 121.8,703 
		123.1,701.6 123.7,700.3 122.7,699.4 	"/>
	<polygon class="st0" points="48.4,712.2 45.2,713.3 44.8,714.8 45.2,716.6 46.3,717.5 46.3,719.4 48.1,721.8 48.7,722.1 
		48.8,720.3 50.3,719.3 51.8,718.9 52.2,715.2 53.5,714.1 51,712.1 	"/>
</g>
<g id="連江縣">
	<polygon class="st0" points="64.3,199.9 68.7,200.3 70.7,197.1 64.7,197.1 	"/>
	<polygon class="st0" points="79.8,199.1 75.8,208.6 77.4,208.2 85,203 81,201.4 	"/>
	<polygon class="st0" points="74.3,132.7 71.1,135.5 66.7,136.3 64.3,133.1 59.9,129.9 59.5,134.3 60.3,139.1 59.5,141.9 
		65.9,142.7 70.7,141.5 77.1,136.3 	"/>
	<line class="st0" x1="80.6" y1="134.7" x2="79.4" y2="132.3"/>
	<polygon class="st0" points="77.8,114.4 78.2,123.9 79,119.5 82.2,117.5 87,117.1 90.6,114.7 93.4,117.9 94.2,115.9 90.6,109.9 	
		"/>
	<polygon class="st0" points="85.4,97.7 84.2,93.8 81.8,98.5 83.5,99.2 	"/>
	<polygon class="st0" points="90.1,104.5 87.3,107.3 91.3,106.5 	"/>
	<polygon class="st0" points="262.5,63.5 261.1,63 259.1,61.2 258,61 257.3,62.7 256.3,63.9 255.1,63.8 255,65.3 254.2,66.2 
		253.8,67.4 255,68.2 259.1,66.9 260.6,64.7 261.8,65 263.1,64.6 	"/>
	<polygon class="st0" points="253.7,61.3 251.9,59.4 249.5,61.5 249.7,62.2 253.9,62.5 	"/>
</g>
<g id="金門縣">
	<polygon class="st0" points="103.3,326.2 102.6,325.4 101.7,324.9 100.4,324.6 99.3,324.7 98.5,325.3 97.9,326 95.4,325.6 
		94.5,326.1 94,327.1 94,329.9 93.5,330.8 93.4,332.1 92.6,332.7 91.2,332.7 90.3,333.2 90.6,334.6 91.2,335.5 90.7,336.5 
		89.9,337.3 88.9,337.7 88.5,337.7 89.1,338.8 91.7,339 92.2,340.2 93.5,340.1 95.5,337.4 96.6,337.1 97.8,337.4 98.4,338.2 
		99.4,337.7 100,336.8 99.9,335.5 100.5,334.6 103.2,334.5 104.4,334.1 105,333.4 106.5,329.2 106.3,328 	"/>
	<polygon class="st0" points="73.8,345.1 73.2,343 71.6,343.1 72.1,344.2 72.7,345.1 72.3,345.8 73.7,345.9 74.6,346.4 75.4,345.8 
		75.2,345.2 	"/>
	<polygon class="st0" points="69.6,347.7 71.9,348.3 72.6,347.7 70.2,346.9 	"/>
	<polygon class="st0" points="172.4,326.1 171.5,325.6 170.1,325.6 169.8,324.9 169.1,324.2 168.4,320.8 168.4,318.6 169.9,317.7 
		170.3,316.6 169.7,315.9 167.7,316.6 166.8,316.3 166.3,315.4 165.7,313.1 165.9,311.9 165.3,311.3 164.4,310.8 164.2,307.4 
		158.3,306.7 157.9,305.4 157.3,304.5 157.3,303.1 156.7,302.3 157.3,301.7 156.1,301.7 156.2,301 155.3,300.9 154.6,301.1 
		154.2,300.5 152.6,302.2 152.1,301.3 153,300.7 152.2,300.1 151.3,300.7 150.7,301.5 151.7,302.3 152.4,303.3 152,304.4 
		150.8,304.6 149.1,305.8 147.9,306 146.7,305.9 146.2,306.2 145.9,307.1 146.4,307.8 146.5,309.1 147.8,307.7 148.8,308.2 
		150.2,308.2 150.1,308.9 148.7,308.9 149.6,309.7 150.1,310.6 149.3,311.2 149.3,312.6 148.4,312.3 147.2,310.6 146.5,310 
		146.3,310.9 146.9,311.8 146.9,312.1 146,313.1 145.1,313.7 144.5,314.5 143.6,315 142.2,315 143.5,316.2 143.1,316.7 143.7,319.1 
		143.4,319.8 142.8,319.8 141.1,321.2 140.5,322.1 132.4,321 121.6,313.2 120.4,312.9 120,312.6 119.4,313.3 118.1,313.5 116,315.6 
		114.8,315.8 112.8,319.6 115,320.9 116.2,321.2 116,320.3 115.3,319.5 116.2,319 119,319.1 119.5,318 120.4,317.4 121.1,318.2 
		121,319.9 120.3,320.6 117.9,321.1 117.4,322.3 117.4,324.1 117.8,324.4 118.5,325.6 119.2,328 119.2,330.8 119.4,331.5 121,331.7 
		121.6,332.4 121.5,333.7 120.5,334.1 119.9,332.4 119.4,333.3 117.2,333.6 117.1,335.9 116.3,336.5 112.3,336.6 111.7,336.1 
		111.8,334.8 111,336.5 109.9,336.3 109.6,337.2 110.6,337.9 111.5,338.3 113.2,340.5 114.7,341.7 115.3,342.7 118,342.9 119,343.4 
		119.6,344.5 120.9,345 122.4,345.2 124.4,346.5 124.9,345.7 126.5,345.4 126.9,344.4 127.6,343.8 128.2,341.4 131.2,337.1 
		131.9,336.5 132.5,335.6 133.3,335 133.5,334.5 134.7,334.3 135.5,333.7 136.7,333.4 137.4,332.8 138.3,332.3 139.6,332.2 
		141.6,331.4 149.5,330.8 151,331.4 152.7,332.8 153.6,333.3 155,333.3 157.3,334.2 159.7,336.6 159.6,337.7 159,338.5 158.2,339.1 
		157.6,339.3 158.7,339.8 160.1,339.8 161.1,339.4 161.9,338.8 163.1,338.5 163.7,337.6 166,337 166.4,336 165.9,335.2 166.2,334.2 
		167,333.8 168.4,334.1 169,333.4 169.4,332.6 168,330.9 167.8,329.9 169.6,328.8 170.6,328.7 171.2,329.3 172.2,328.5 171.8,327.7 
		171.9,326.8 	"/>
	<polygon class="st0" points="161.4,302.7 160.6,301.8 159.5,302.2 160,302.7 	"/>
	<polygon class="st0" points="166.4,337.5 167.7,337.4 167,336.9 	"/>
	<polygon class="st0" points="237.2,281.2 236.7,283.7 238.1,285.1 239.7,285.8 239.7,283.1 238.5,281.7 	"/>
	<polygon class="st0" points="245.3,286 244.1,285.4 242.9,287.5 244.7,288.6 246.5,287.4 	"/>
</g>
<path id="屏東縣" sodipodi:nodetypes="csssssssssscssssscssssssssssscssscsssssssscssssssssssssssssscssssscssssssscscsssssssssssssssssssssssccssssssssssssssssssssssscssssssssscssscssssssssscsssssssssssscsssssssssscsssssssssscsssssssssssssssssssssssssssssssscssssssssscsssssssssssssssssscsssssssssssssssssscsssssssssscssssssssssssscssssssssssssssscsssssssssssssssssssssssssssssssssssscsssssssssssssssssssscsssssssssssssssssssssssssssssssssssssscsssssssssssssssssssssssssssssssssssssssssssssssssssssssssssssssssssssssssscsssssssc" class="st0" d="
	M489.9,1034.5l-3,1l-2,1.8l-3.3,1.3l-2.8-4.8l-3-0.8h-4l-1.3-2.8l-2.8-1l-2.3-1.5l-4.3,0.3l-0.5-2.3l0.8-3.3l1.8-1l-2.8-1l-1-2.5
	l-4.8-2.8l1.8-2.3l2.5-1.3l-0.3-7.6l-2.5-1.5l-1.3-2.5H452l-3.8-4l-3.5-1.8l4.8-14.6l6.6-1l1.3-2.8l-0.8-3.3l-2.8-2l-2.5-5.3l-4-2.5
	l-0.3-3l-1-3l4.3-3.3v-3.8l-4-8.1l-0.5-4.3l-1.8-1l-1-3l0.5-3.5l2.8-5.1l-1.3-2.8l1.5-2.3l1-2.8l-0.3-3.5l1-2.5l2-2l0.8-3l1.8-2
	l0.3-1l4-5.6l0.3-3.5l1.8-2.3l0.3-2.5l3.3,0.5l3.5-1.8l6.1-1.3l3-6.3l11.1-0.5l2-2.3l0.3-3.5l1.8-2l0.5-9.9l2-2l-1-2.3v-3.8l-1-3.3
	l-2.5-1.3l-3.3-0.3l-2.8-2.5l-0.8-1.5l-1-8.3l-3.8-2.5l-2.3,0.8l-0.3-1.3l-2.5-1.3l-1-0.3h-3.3L466,834l-5.1,2.5l-1.8,2.3l-2.8,1.5
	l-2.8-1.5l-6.3-7.6l-8.6-5.3h-3.8l-3,0.8l-3.3,4.8l-3,0.8l-1,1h-2.8l-2.8-1.3v-3.8l-1.8-2l-3-1.3l-3,0.8l-2.8,2l-3.5,0.3l-6.6,4.5
	L397,833l-4,3.3l-0.3,1.3l-2.5,3.3l-2.3,1.8l-3.5,0.3l-6.1-1.5l-2.8,1.3h-3.8l-1.5-2.3l-4.5-0.3l-1.8-0.8l-2.5,1.3l-1.5,9.8
	l-1.3,2.5l-0.5,3.3l-1.3,2.8l0.3,15.2l-0.8,1.3l0.3,4.5l-1.8,6.8L353,889l-2,6.1l-0.3,18.2l3.5,4.3l-2.8,16.4l-1.3,2.8l-2.5,2.2
	l-0.2,1.8l-0.8,1.1l-0.1,3.8L346,947l0.8,1.8l0.1,9.1l2.9,0.2l2,1.9l-0.1,1.8L351,962l1.8,2.4l5,3.7l0.9,1.2l1.4,0.6l0.6,0.1h-0.2
	l0.2,0.4l3,1.3l1.2,1.2l1.5,1l2.9,1l1.1,1l1.5,0.8l1,0.9l1.7,0.8l1.1,1l9.6,5.2l1.1,1.4l1.7,0.5l10.8,8.7l0.9,1.3l2,5.4l-0.4,0.8
	l5.4,3.7l5.8,7.3l0.5,1.5v4.8l1.8,2.9l0.8,3.4l-0.1,1.8l-0.5,1.5l0.1,1.5l4,3.4l0.9,1.2l1.3,1l0.8,1.2l1,3.5l3.3,3.4l-0.9,1.8v1.9
	l0.4,1.8l1.2,1.2l1.6,4.9l0.1,5.6l1,3.3v1.9l0.7,1.2l0.5,2.2l1.2,1.1l0.8,1.2l0.3,1.8l1.4,1.4l0.2,3.6l0.8,1.2l-0.1,1.9l-0.8,1.2
	l-5.2,1.5l0.2,1.7l1.8,0.4l0.5,1.3l-0.1,0.6l0.4,1.6l0.6,1.3l-0.6,1.2l-0.9,1l-2.5,1.5l-0.2,1.6l1,1.2l-3.8,3.5v3.7l1.5,0.9v1.9
	l1.2,1.1l-0.4,1.5l3.9,3.4l0.4,1.4l1.3,1.3l0.8,1.2l0.5,2.5l-0.9,3l0.1,5.9l-1.1,2.7l0.9,1.1l1.8,0.2l0.9,3.3l1,1.7l3.9,0.4l1.5-2.4
	l1.1-0.9l0.2-1.7l-0.8-3.2l0.6-1.4l1.4-0.6l2-2.2l1.3-0.6h1.9l0.5,1.4l4.2,2.9l0.5,0.1l2.3-0.1l1.6,0.4l0.6,1.3l1.5,0.4l1.4,0.9
	l1.9,0.6l1.9,0.1l3.8,3.8l0.1,1.8l1.9,0.6l0.9,0.8l0.6,1.2l0.1,1.8l2.7,2.5h1.9l1.3-0.9l-0.2-1.7l-1-0.9l-0.4-1.6l0.1-1.8l-0.5-1.4
	l-4.9-7.5v-7.3l0.5-1.4l-0.6-1.4l0.5-3l1-0.4l0.1-1.7l3.4-0.5l1.7-0.6l0.6-1.2l1.5-0.4l1.3-1l0.5-1.5l0.1-1.8l0.9-1l1.8-0.1l0.4-3.4
	l3.7-2.4l0.4-1.4l-2-2.5l-0.1-9.3l-1.2-1.7v-1.9l2.7-4.5l1-1.1v-1.5l-1.5-0.6l-2-2.2l-0.6-1.6l-0.2-4.8l0.2-0.7l0.9-0.1l0.5-0.6
	l0.7-0.5l0.3-0.7l-0.9-1.4l0.1-3.7l-0.8-1.3l0.2-0.6l0.5-0.6l0.3-0.6l0.2-0.8l-0.2-0.8v-1.9l-0.3-1l-0.4-0.6l0.1-1.1l-0.6-0.8
	l-0.3-0.8l0.2-1.6l1.4-1.2l0.4-0.6l0.2-0.7l0.1-1.8l-0.2-0.8v-0.7l0.2-0.5l-0.9-1l0.8-3.3l1-1.1l0.5-1.4l-1-1.2l-0.2-0.9"/>
<path id="宜蘭縣" sodipodi:nodetypes="csssssssssssssssssssssssscsssssscsssssssssssssscsssssssssssssssssscsssssssssssssssssssssssssssscsssssssssssssssssssssssssssssssssssssscsssscsssssssssssssssssssssssssssssssssssssssssssssssssssssssssssssssssssssssssssssssssssscsssssssssssscssssssssssssscsssssssssssscssssssssssssssscsssssssssssssssssssssssssssssssssssscssssssssssssssssssssssssscssssssssssssssssssssssssscssssssssssssssscssssssssssssssssssssssssssssssc" class="st0" d="
	M664.5,240.1l-0.5,1.2l-1.6,0.5l-3.5,0.3l-1.3,0.8l-1.8,2.4l-0.6,5.1l-2.3,3l-0.4,1.5l-0.6,1.3l-0.4,1.5l-3.4,5.3l-0.3,1.6H646
	l-1.4,0.6l-1.1,0.9l-0.4,0.7l-0.9,0.9l0.1,0.6l1.1,0.8l0.6,1.4l0.1,1.8l0.5,1.4l-1.3,1.1l-0.5,0.3l-0.5,0.8l-1.3,0.8l-1.4,1.5
	l-0.4,1.6l0.6,1.3l0.1,7.3l-0.8,1.8l-1.1,1.4l-1.4,1l-1.6,2.5l-1.8,1.4l-0.5,1.3l-1.4-0.1l-3.4,4.9l-1.3,0.8l-1.9-0.4l-1.4,2.8
	l-1.4,0.8l-1.1,2.9l-0.9,1.1l-1.5,1.3l-1.3,2.5l0.1,1.6l-0.7,1l1.4,1.7l0.9,1.8l0.5,2.1l-0.9,7.1l2.7,2.7l2,0.7h4.8l4.1,7l1.8,0.9
	l2.7-0.4l1.2-1.6l1.6-1.2l2.3-0.4l1.8-0.9l7.1-0.9l2.1,1.1l1.1,1.8l1.6,1.1l1.3,2.1l12,7.7h8.1l3,1.3l4,0.5l8.1,5.6l8.3,1l3-0.8
	l-3-2.5l0.8-3l3.3-0.8l2.3-1.5l2.3,1l2-1.8l-0.8-1.5l-2-1.8l0.3-3.3l2-0.8l4.3,3.8l4.8,1.5l4.5,3.5l9.1,3.8l7.3,0.5l8.1,4l4.1,0.5
	l-0.2-4l-0.8-1.2l0.1-3.7l2.5-4.8l0.4-1.5l1.5-2.5l0.5-10.9l0.5-1.6l0.9-1.2v-2.1l1-3.5l1.8-2.4l0.5-1.8l2.7-1.6l1-1.2l1.3-2.6
	l0.1-1.8l4.5-4.3l4.6-1.9h1.9l0.5-0.2l-1.4-0.8l-1-1l-0.8-1.2v-1.9l-2.5-1.5l-0.5-4.9l1.8-1.1l0.9-1.3l3.3-0.6l2.8-1.8l1.7-0.4
	l0.5-1.7l-0.1-1.5l-0.6-1.8l-0.1-1.8l-0.8-1.1l-0.3-3.5l0.8-1.1l-0.9-1.4l0.7-1.5h1.9l-0.2-1.4l-1-0.9l-0.2-0.5l1.5-0.7l-1.2,0.3
	l-1.8-0.7l-0.1-1.2l-2.4-2.2l0.4-1.6l1.8-0.1l1.5,0.9l0.2,1.8l1.8-0.1l1.5-0.8l-3.7-3.7l-3-1l-0.4-0.8l-0.5-0.2l-1.6-2.2l-0.1-1.3
	l-3.7-9.1l-0.1-3.8l-0.8-1.1l0.4-0.6v-2l-0.5-1.7l0.5-10.2l-2.9-3.2l-0.9-1.5v-1.7l-1.4-1.6l-0.6-3.4l0.1-1.8l-1-1l0.5-14l0.7-2.2
	v-1.9l1.2-2.8l-0.2-3.7l1-3l0.1-1.8l2.4-5.2l0.2-1.8l1.3-2.2l1.5-0.8l1-2.9l0.9-1.1l1.4-0.5l3.8-4.4l1.3-0.6l3.2-3.7l0.2-3.5
	l0.5-1.5l2.8-1.6l1.5-0.4l1.5-2.2l1.2-0.9l1.2-0.6l2.5-3.5l0.3-1.9l1.8-1l1.8-0.2l1.2-0.5l1.1-1.1l1.7-0.2l1.2-0.8l1.9-0.1l2.7-1.2
	l-3.6-0.7l-2.5,0.2l-6.2,2.3l-5.4,0.4l-6.8,4.8l-1.4,1.6h-2.9l-2.3-0.9l-5.2-0.4l-1.8,1.4l-0.5,2.1l-0.9,1.8l4.1,5.9l-1.4,4.3
	l-5.9,3.9l-5.4-0.4l-2.3,0.4l-3,2.5l-2.5,3.2l0.5,2.3l-0.2,2.1l-1.4,1.8l-0.2,2.1l0.2,1.2l-2.5,0.5l-1.8,0.9l-7.5-1.1l-2.3,0.4
	l-2,1.1l-2.7,3.2l-4.8,2.6l-0.5,1.7l-1.8,1.6l-1.1,1.8l-2.1,0.7l-0.7,2l-1.6-1.8l-3.6,1.8l-10.5,1.2l1.4,1.2l-0.5,2.1l-2.3,1.8
	l-2.5-0.7L702,203l-2.1,0.5l-0.9,2l0.2,2.5l-0.4,2.3l-2,1.6l0.4,2.5l1.4,1.4l0.7,2.1v2.7L698,225l-2.3,0.4l-1.6,1.2l-1.1,1.6
	l-2.1,0.7l-2.7,0.2l-5.9,3.2l-0.5,2.5l-5.2,3.4l-4.6,0.7l-2.3,1.4L664.5,240.1L664.5,240.1z"/>
<polygon id="新竹縣" class="st0" points="644.2,271.8 644.1,270 643.5,268.6 642.1,267.6 639.5,268.3 635.8,267.8 634.3,266.9 
	633,265 632.1,265 631.3,264 630.8,262.5 629.4,262 629.4,258.1 630.2,256.7 630.6,254.9 629.1,254.1 627.5,253.8 626.2,253 
	626.1,249.2 627.1,248.2 627.2,246.3 627.7,244.8 627.4,242.9 625.8,242.1 623.9,242.1 623.3,240.8 623,239 622.2,237.7 
	621.1,236.8 618.8,233.9 615.9,232.5 612.9,233.5 611.5,233 611.5,229.2 612.6,228.1 613.2,226.8 613.2,223 611.1,222.6 
	611.2,218.2 611.7,216.8 612.6,215.5 613,213.9 611.7,212.6 611.1,211.1 609.3,210.7 608,209.4 606.6,208.9 604.8,208.8 604.3,208 
	604,208 602.4,207.1 601.4,205.8 599.9,204.9 599.5,204.3 599.4,203.2 598.5,200.8 597,200.2 594.9,199.8 594.9,197.9 593.4,197.4 
	589.5,199.2 587.9,199.2 579.7,192.9 577.7,192.1 577.7,190.7 575.8,190.4 574,189.8 570.5,187 569.9,186.1 566.9,184.2 
	567.3,182.6 569.1,179.8 568.6,174.2 567.2,173.2 555.5,172.2 554.7,170.7 554.4,168.8 555.4,167.9 554,167.1 552.7,168 
	551.1,168.6 549.2,168.7 547.6,167.4 545.6,166.8 543.7,166.8 542.4,165.4 539.4,164.3 539.5,160.6 540.1,159.1 539,156.1 
	538.9,154.3 537.1,154.2 535,152.1 531.3,151.8 527,153.1 524.7,151.6 520.4,154.1 517.3,153.3 511.8,161.2 512.2,163.1 513,164.6 
	507.4,171.5 506.8,174.9 505.8,175.8 505.3,177.6 503.3,180.1 502.7,181.6 504.3,182.9 504.8,184.3 504.7,185 504.2,183.6 
	502.6,182.4 501.6,183.2 500.1,183.8 495,190.8 493.8,191.9 494.4,194.9 494.2,195.9 494.7,196.4 496.6,196.5 496.8,198.1 
	496,199.6 495.6,203.1 494.8,204.2 494.7,208.1 492.8,210.6 492.3,212.1 493.7,213.2 492.9,214.2 492.3,216 490,218.2 488.2,219.2 
	486.8,220 487,221.1 488.3,221.7 490.3,221.7 491.7,221.2 492.8,220.3 494.2,220.8 496.1,223.1 496.6,224.7 496.6,226.2 
	501.5,227.5 501.9,227.2 502.8,228.3 504.3,229.1 507.2,229.1 508.1,230.2 509.6,229.6 510.9,228.6 514.4,228.3 513.5,229.4 
	514.9,230.2 513.9,231.5 513.6,233.1 512.7,234.5 512.3,235.8 514.3,236.6 514.6,238.4 516.2,241.3 517.6,242.7 518.5,244.2 
	521.8,246.3 523.6,246.6 524.7,247.9 524.8,249.7 526.6,250.5 528.4,250.8 530.4,254 531.7,254.9 533.3,255.3 534.2,256.8 
	536.6,258.7 538.1,257.8 540.1,257.3 541,257.7 542.4,260.9 544.3,261.4 545.4,264.8 546.8,265.6 546.4,267.2 545.5,268.5 
	545.4,270.3 544.3,271.7 543.2,275.9 541.2,279.2 543.9,281.3 545.4,284.2 545.5,286.1 545,287.6 542.9,289.9 542.1,291.4 
	542.1,293.4 543,295.3 543,297.4 548.9,297.4 552.3,298.2 555.7,296.8 557.8,294.9 559.7,294.9 561.2,295.3 562.6,294.8 
	570.2,295.2 571.5,296.3 573.4,296.3 574.8,295.5 579.1,295.5 581.8,293.7 583.3,293.2 587,293.5 588.1,295 587.8,297.9 
	588.3,299.2 589.9,300.1 590.7,301.2 592.2,302 592.8,303.5 594.9,305.9 595.5,307.4 596.6,308.7 598.1,309.6 599,310.9 599,314.7 
	599.6,315.5 599.3,316.8 599.4,318.9 600.3,319.9 606,320 607.3,319.4 613.1,319.5 614.4,318.7 615,317.3 616.7,316.4 617.1,315.7 
	617.2,313.9 618.5,311.4 620,310.1 620.9,309 622,306.1 623.4,305.3 624.8,302.5 626.7,302.9 628,302.1 631.4,297.2 632.8,297.3 
	633.3,296 635.1,294.6 636.7,292.1 638.1,291.1 639.2,289.7 640,287.9 639.9,280.6 639.3,279.3 639.7,277.7 641.1,276.2 
	642.4,275.4 642.9,274.6 643.4,274.3 644.7,273.2 "/>
<path id="苗栗縣" class="st0" d="M502.6,229.1l1.5,0.8h2.9l0.9,1.1l1.5-0.6l1.3-1l3.5-0.3l-0.9,1.1l1.4,0.8l-1,1.3l-0.3,1.6
	l-0.9,1.4l-0.4,1.3l2,0.8l0.3,1.8l1.6,2.9l1.4,1.4l0.9,1.5l3.3,2.1l1.8,0.3l1.1,1.3l0.1,1.8l1.8,0.8l1.8,0.3l2,3.2l1.3,0.9l1.6,0.4
	l0.9,1.5l2.4,1.9l1.5-0.9l2-0.5l0.9,0.4l1.4,3.2l1.9,0.5l1.1,3.4l1.4,0.8l-0.4,1.6l-0.9,1.3l-0.1,1.8l-1.1,1.4l-1.1,4.2l-2,3.3
	l2.7,2.1l1.5,2.9l0.1,1.9l-0.5,1.5l-2.1,2.3l-0.8,1.5v2l0.9,1.9v2.1h5.9l3.4,0.8l3.4-1.4l2.1-1.9h1.9l1.5,0.4l1.4-0.5l7.6,0.4
	l1.3,1.1h1.9l1.4-0.8h4.3l2.7-1.8l1.5-0.5l3.7,0.3l1.1,1.5l-0.3,2.9l0.5,1.3l1.6,0.9l0.8,1.1l1.5,0.8l0.6,1.5l2.1,2.4l0.6,1.5
	l1.1,1.3l1.5,0.9l0.9,1.3v3.8l0.6,0.8l-0.3,1.3l0.1,3.9l-1.8,0.9l-2,1.6l-1.4,1.8l-0.2,2.5l-3.4,5.5v2.7l-2.1,0.5h-2.7l-1.8-2.5
	l0.9-1.4L582,332l-2,0.9l-0.7,2.1l-1.2,1.8l-2.3,0.7l-4.8,6.8l-2,0.7h-5l-1.8,1.2l-0.7,2l-0.7,0.2l-2,2.1l-0.4,2.5l-2.1,0.5
	l-3.4,2.9l-2.1,0.5l-5-0.5l-4.5,1.6l-5.4,6.8l-2.7,0.2l-2-1.1l-3.2-3l-0.4-2.5l-1.8-1.2l-2.7-3.9l-1.6,0.4h-2.7l-2-0.9l-5-0.4
	l-6.1-2.1l-4.8-0.2l-2.1,0.9l-1.4,1.4v2.7l0.9,2l0.4,5l-0.9,2l-1.8,1.4l-2.1,0.7l-10.4-0.4l-2,0.9h-5.4l-5.2-1.6l-3.2-3l-1.1-2
	l-1.6-1.2l-11.2-2.1l-3.4-2.9l-2.5-0.7l-1.4-2l-3.6-2l-1.4-1.6l-2.1-0.7l-1.2-1.6l-0.9-0.4l-3-0.4l-1.2-1.8l-3.2-2.1l-7.5-9.6H422
	l-0.9-1.8l-4.5-1.8l-2.3-3.8l-0.4-2l-3.8-4.7l1.6-0.7l3.8-3.2l3-3.9l0.6-1.4l5.2-6.8l1.2-3.2l1.4-1.9l9.5-28.2l2.2-2.9l0.1-0.8
	l1.2-1.2l3.2-0.8l2.7,2.3l1.1,1.7l0.4-1.5l-0.4-2l2.7-1.6h1.4l1,0.2l-0.1-1.7l-1.7-0.8l-1.5-1.1l1-0.9l0.6-3.3l3-5.3l1.7-0.2l2-2.4
	l5.6-0.2l4.4-2h2.4l3.9,1.4l1,1l2.2,0.5l1.3-0.8l-0.8-1l-1.9-0.2l-1.5-0.7l-0.8-1.6l-1.8-0.2l0.1-1.8l1-1.1l1.5-0.8l5.5-4.7l0.5-1.6
	l0.9-1.2l0.4-1.5v-1.9l1.2-2.8l1.3-1.1l0.9-1.3l1.9-0.8l0.5,1l1.3,0.6h2l1.4-0.5l1.1-0.9l1.4,0.5l1.9,2.3l0.5,1.6v1.5l4,1.1
	L502.6,229.1L502.6,229.1z"/>
<path id="彰化縣" sodipodi:nodetypes="cssssssssssssssssssssssssssscsssssscssssssssssssssssssssssssssssssssscsssscsscssssssssssssscsssssssssscssssssssssssscsssssssscssssssssssssssssscsssssssssssssscsssssssssssssssscssssssssssssssscssssssssssssscssssssssssssssc" class="st0" d="
	M299.2,514.2l6.3,2.3l3.8,0.3l5.8,1.8l16.2-0.8l2.8-1l14.6,0.3l2.5-1.3l5.1,2.8l0.8,1.3l4.3,0.5l8.1,4l6.3,1.5l7.3-0.3l3-0.8
	l30.6,5.1l5.8-1.8l2-1.8l1.3-2.5v-3.3l-2-0.5l-2.5,1.3H418l-2.5-1.3l-7.3-7.8l0.3-2.3l1.3-2.5l-1.8-2l1.5-2.5l0.5-3.3l1.3-2.5
	l1.3-9.6l-0.5-2.8l0.5-2.3l-1-5.6l1.5-2.3l2-1.8l1.3-2.5l0.3-3.5l-1.3-2.8l-1.8-2l-0.5-0.3l0.3-3.8h7.6l4-2.3l-5.8-4.8l-1.1,0.7
	l-3.6,0.4l-1.6-1.4l-2.5-0.2l-1.4-7l0.9-2v-2.9l-1.8-1.4l-1.6-2.1v-5.4l-0.4-0.9l-1.6-1.2H402l-7.5-2.1l-2.7-0.2l-2-1.1l-2.1-0.5
	l-1.6-1.2l-2-0.9l-1.4-2.3H382l-1.8-1.2l-1.2-1.6l0.2-2.5l1.2-1.6l-3.2-3.4l-0.4-2.7l-1.1-2.7l-0.4-2.3l-2.1-3.4l-4.4-2l-1.5,0.4
	l0.5,1.5l0.7,0.9l-1.5,0.8l-3.2,4.2v0.1l-2.7,4.3l-1.2,0.8l-5.6,0.1l0.2,1.5l1.5,1.3l-0.1,3.7l-1,0.9l-0.6,1.4l-0.4,1.8l-0.9,1.2
	l-0.1,3.8l-0.1,0.4l-1,1.5v1.9l0.6,1.2l-0.2,1.9l-1.4,1.2l-3,1.2l-0.8,1.8l-2.3,2.4l-0.2,3.5l-0.6,1.4l-2.7,0.5l-1.4,1.1l-1.6,0.2
	l-2.4,1.8l-1.4,0.5l-0.4,1.6l-4.1,3l-0.8,3v2.2l-0.9,1.5l-0.2,1.6l-1.3,0.9L326,464l-2.4,0.2l-1.9-0.4l-1.4,1.2l-1,4.9l0.4,1.2h3.8
	v0.9l-4.8,7.2l-0.2-0.1l-0.4,2l-0.9,1.1l-0.4,1.5l-1,1l-1.3,4.8l-2.1,2.4l-0.5,1.8l-1.9,2.5l-0.6,1.5l-0.9,1l-0.2,2.2l-1.2,0.7
	l-1.1,1l-1.4,0.8l-0.9,1.3l-1.4,0.8v1.4l0.9,1.3l-0.7,0.5h-1.9l-0.9,1.2l-0.3,3.7l-0.4,1"/>
<path id="雲林縣" sodipodi:nodetypes="csssssssssssssssssscssssssssssssssscsssssscssssssssssssssssssssssssssscssssssssssssscsssssssssssssssssssscsssssssssssssssssssssssssssssssssssssssssssssssssssscssssssssssssssssssssssssssssssssssssssssssssssscssssssssssssssssssssssssssssssc" class="st0" d="
	M440.6,587.7v-3l-2.3-2l-3.3-0.5l-1,2.8l-2.8,0.5l-3.3-0.8l-0.8,3l-3,0.5l-3.5-0.3l-2.3-1.5l-1.5-2.8l-0.8-3l-4.8,3.5l-0.3-7.3
	l2-5.8l0.3-0.3l1.8-4l0.5-3.3l-0.3-3.5l-1.5-2.5l-0.3-7.3l0.8-3l2.8,0.5l0.5-7.1l-5.1-10.9l-20.7-3l-3.8-1.5l-2-0.3l-10.4,1
	l-14.4-5.6l-4.3-0.5l-0.8-1.3l-5.1-2.8l-2.5,1.3l-14.6-0.3l-7.6,2l-11.4-0.3l-5.8-1.8l-3.8-0.3l-6.4-2.2l-3.9,0.1l-1.2-0.7l-1.4-0.2
	L292,515l-1.8,0.1l-6.1,10.8l-0.1,0.7l-2.2-0.1l-1.3,0.8l-2,2.4l-0.6,1.6l-0.2,3.8l-1,1.2l-0.2,1.6l1.7,2.4l-0.2,1.8l-1.7,2.4
	l-3.2,0.1l-0.4,1.5v1.9l-2.2,1.2v2.4l-0.1-0.1l-0.5,0.2l-0.4,1.6v1.9l0.5,1.4l1.9,0.1l1.4,2l-2.3,2.8l-1.4,2.8l-0.4,1.5l-1.9,3.2
	l-1,3.5l-1.3,1.9l-2.6,7.4l0.2,7.5l-0.4,1.5l0.1,1.4l1.8,0.9l-0.1,1.7l-1.5,0.6l-2.2,1.6l0.5,2.2l1.1,0.6l1.5,0.2l0.1,1.9l-1,1.2
	v3.8l1.2,0.9l2,2.8l1.4,1.1l-1.2,0.8l-0.9,1.7l-1.8,0.1l-0.5-1.4l-1-0.9l-1.5,0.9l-2.2,2.5l3.9,0.1l5.8,2.3h3.8l1.5,2.3h3.8l2.8-1.3
	l6.3,2.3l3.8,0.5l2.3-1.8l1.8-2.3l0.3-3.5l-0.8-3l2-2h3.3v3.3l3.5,1.3l1-2.8l4.8-2.8l0.8-3.5l1.8-2l6.3-2.5l2.8,1.5l1.8-6.1l1.5-2.5
	l4,0.3l2.5-1.3l1-3l5.8-1.8l1-2.8l2.3-1.8l1.8-2.3l2.8,1.3l2.3,1.8l2.8,1l5.8-2.3h7.6l5.3-2.8l5.1,1.3l1.5,5.1l4.3,3.5l1.5,2.3
	l2.5,1.5l3.5,0.3l2.3,1.8l3,1l13.9,1.5l2.8-1.5l1.8-2l5.6,0.3l-0.5,3.8l2,3.3l2-2l3.3-0.8l2,2l3-0.3l2.8-1l3.5,0.3l2.8,1.5l3.5,0.5
	l1.3-2.5v-3.5l-0.8-3l-1.5-2.3L440.6,587.7L440.6,587.7z"/>
<path id="花蓮縣" sodipodi:nodetypes="csssssssssssscsssscssssssscsssssssssssssssssssssssssssssscsssssscssssssscsssssssssscsssssscsscssssssssssssssssscsssssssssssssssscssssssssssssssssssssssssssscssssssssssssssssssssscssssssssssscsssssssssssscssssssscsssssssssssscssssssssssssssssssssssssssscssssssssssssssssssssssssssssssssssssssccsssssssssssssssscsssssssssssssssssssssssssssssssssssssssssssssssssssssssssssssssscssssssssssssssssssssssssssssssssssssssssssssssssssssssssssssssssscsssssssssssssssssssssssssssssssssssssssssssscssssssssssssssssssssc" class="st0" d="
	M670,646.8l-3.4-0.9l-2.3-1.8l-3-0.8h-3.8l-2.8,1l-4.3,3.5l-7.3,13.1l-0.3,0.3l0.5,4.5l2,2.3l3.3,1.8v0.3l-12.1,18.4l-0.5,8.8
	l-1.8,2.3l-2.3,1.5l-1.3,2.5l-1.5,6.1l-2.3,1.8v3.8l-1.5,2.8l-0.3,2.8l-3,5.8l-4.3,3.5l-1,2.8l0.8,3.5v11.4l-1,2.8l-9.8,1.5
	l-2.5,1.8l-2-0.3l-0.3-3.5l-1.8-3.3l-2-1.8l-4.5-0.3l-1-0.8l-1.8-2.3l-3-1l-2.5-1.5v-2.8l-3.8-5.3v-4.3l-1.3-2.8l-1.8-2.3l-5.1-3.3
	l-5.3,2.5l-0.5,1.3h-1l-2.8-1.3l-1.3-2.5l-3.5-4l-3.5-0.3l-5.3-3.3H546l-1.3-2.5l-0.8-0.8l-3.8-9.1l0.3-3.8l-3.8-4.8l-0.8-2.5l0.8-3
	l-0.3-3.5L521,670.3l-3-0.8l1-3.5l1.8-2.5l3.3-1l-0.5-2.3l1.5-2.3l3.3-0.5l1.5-2.3V648l-2.3-1.5l-0.5-1.6l1.3-1.1l3-0.8l3-2l3-0.8
	l0.8-3.5l-1-3l-2.3-1.8l1.8-2l0.8-3.3l2-2.3l2.3-1.5l0.8-3l2.3-1.5l3.5,0.3l2.8-1.3h3.8l1.3-0.5l2.5,1.5l3,0.8l4.8-4v-7.6l0.8-3
	l2.3-1.5l-2.3-6.3l2.5-1.3l3.8,1l2.8-1.3l1.5-2.3l3.3-1.5l4.5-0.3l3.8-8.3l1.3-10.4l1.3-2.5V566l2-5.6v-9.3l-2.5-2.3l-0.3-3.5
	l0.8-2.8l-8.1-5.8l0.3-3.5l3.3-0.8l3-2.3v-1.5l-0.8-3l0.5-3.5l2.3-1.5l1-3.3l0.3-3.8l1-3l2-2.5l0.3-3.8l2.3-2.3l3-0.8l-0.5-5.6
	l-1.8-3l4.3-3.8l-0.3-3l-1-3.3v-3.8l0.8-2V469l-2-2.5l-1-0.3v-3.5l6.1-12.9l0.3-7.3l2.3-2.3l2.5-1.3l1.5-2.5l2.5-1.3l2-3.5l0.8-2.5
	l0.3-3.5l-1.5-2.3l-3.5-0.5l-1-2.8l-1.8-2l-3.8-1.3l-0.8-1l-0.3-6.3l2.8-6.6l3-0.8l2-1.8l2.8-1.3l3.8-3.8h3.8l1.5-2.3l-1.8-5.6
	l2-1.5l0.9-1.8l-0.2-2.5l3.8-1.6l1.1-1.6l2.7,0.2l1.4-1.2l0.5-2.3l-0.9-4.6l1.2-2l2.3-0.9l1.6-1.1l1.8-4.1l1.4-1.6h2.7l1.8-1.2
	l1.4-1.8l2.1-4.3l0.7-7.3l0.9-2l2.3-1.2l1.3-1.5l12,7.7h8.1l3,1.3l4,0.5l8.1,5.6l8.3,1l3-0.8l-3-2.5l0.8-3l3.3-0.8l2.3-1.5l2.3,1
	l2-1.8l-0.8-1.5l-2-1.8l0.3-3.3l2-0.8l4.3,3.8l4.8,1.5l4.5,3.5l9.1,3.8l7.3,0.5l8.1,4l4.2,0.5l-0.1,1.3l-0.6,1.2l-1.5,0.7l-0.9,1.5
	l-2.2,2l-2.7,3.9l-0.1,5.6l-1.2,0.9L743,378l-1.5,0.6l-0.8,1.9l-0.2,0.1L737,381l-3,5.4l-1.2,1l-1.7,0.2l-3.3,2.9l-1.5,0.4l-0.9,1.1
	l-1.2,0.8l-3.9,5.3l-1,3.3v5.7l2.4,4.3l-0.8,0.8l-0.5,5.2l-0.2,0.5l-0.4-0.2l-1.4,2.4l-1.4,0.5l-3.2,3.7l-1.5,0.8l-4.3,4.7l-0.6,1.4
	l0.1,11.9l0.6,1.2l0.5,3.3l7.2,7.5v1.9l-1,3.4l-1.4-0.4l-0.4,1.7l0.7,1.2l-1.5,0.5l-1.1,2.5h1.6l-0.8,3L710,469l-0.8-1.1h-1.5
	l-1,0.9l-0.6,1.7l-1.1,1.1l-1,3l1.4,3l0.1,5.6l-1,3.4l-0.1,5.3l-0.5,1.7l-0.1,5.6l-0.6,1.2l-0.4,3.4l-1.9,4.3v1.9l-0.6,1.4l-0.2,1.6
	l-1.9,3.9l-0.3,1.8l-3.3,4.8l-0.6,2.1v10.5l0.5,1.4l-1.4,6.4l-3.5,5.4l-1.7,1.1v1.8l-0.6,1.4l-0.1,1.8l0.9,0.6l0.8,2.5l-0.9,1.1
	l-0.2,1.7l-0.6,1.2l-0.9,6.9l-0.9,1l0.1,1.2l0.8,1.2l-1,1.1l-1.5,0.6l-0.5,3.4l-1.3,1.5l-0.1,12.8L681,594l-0.1,3.9l-0.9,3l-1.4,1.2
	l-0.4,1.7l-1.6,2.4l-0.2,1.9l-1.2,3.3l-0.1,3.7l-0.9,1.4l-0.2,2.1l0.5,0.4l0.6,1.7v3.8l1.7,2.5l-0.1,3.7l-0.5,1.5l-1,1.1l-1.5,0.6
	l-1.8,0.1l0.4,0.5l1.7,1l-0.8,1.5v1.9l-0.9,3.3v1.9l-0.6,1.5L670,646.8L670,646.8z"/>
<path id="南投縣" sodipodi:nodetypes="csssssssssssssscsssssssssssssssssscsssssssssscsssssssssssssssssssssscsscsssscsssssssssssssssscssssssssssssssssssssssssssscssssssssssssssssssssscssssssssssscsssssssssssscssssssscsssssssssssscsssssssssssscssssssssssssssssssssssssssssssssssscssssssssssssssssssssssssscssssssssssssssssssssssssssssssssssssssssssssssssccsssscsssssssssssssssssssssssssssssssssz" class="st0" d="
	M412.6,529.7l5.1,10.9l-0.5,7.1l-2.8-0.5l-0.8,3l0.3,7.3l1.5,2.5l0.3,3.5l-1.5,6.1l-0.8,1.3l-0.3,0.3l-2,5.8l0.3,7.3l4.8-3.5l0.8,3
	l1.5,2.8l2.3,1.5l3.5,0.3l3-0.5l0.8-3l3.3,0.8l2.8-0.5l1-2.8l3.3,0.5l2.3,2l0.1,3l6.5-0.7l11.6,4.3h3.8l3.3,0.8l1.3,2.5l0.3,8.6
	l-0.8,3.3l-2.8,2.3v3.8l1.5,2.5l2.3,2l0.5,7.3l2.5,5.8l2,2.3l11.4,1.3l5.6-2.3l11.1,1l2.8,1l11.9,0.8l6.3,2.3h0.5l2.5,1.8l1.3,6.3
	l1,0.5l1.3-1.3l3-0.8l3-2l3-0.8l0.8-3.5l-1-3l-2.3-1.8l1.8-2l0.8-3.3l2-2.3l2.3-1.5l0.8-3l2.3-1.5l3.5,0.3l2.8-1.3h3.8l1.3-0.5
	l2.5,1.5l3,0.8l4.8-4v-7.6l0.8-3l2.3-1.5l-2.3-6.3l2.5-1.3l3.8,1l2.8-1.3l1.5-2.3l3.3-1.5l4.5-0.3l3.8-8.3l1.3-10.4l1.3-2.5V566
	l2-5.6v-9.3l-2.5-2.3l-0.3-3.5l0.8-2.8l-8.1-5.8l0.3-3.5l3.3-0.8l3-2.3v-1.5l-0.8-3l0.5-3.5l2.3-1.5l1-3.3l0.3-3.8l1-3l2-2.5
	l0.3-3.8l2.3-2.3l3-0.8l-0.5-5.6l-1.8-3l4.3-3.8l-0.3-3l-1-3.3v-3.8l0.8-2V469l-2-2.5l-1-0.3v-3.5l6.1-12.9l0.3-7.3l2.3-2.3l2.5-1.3
	l1.5-2.5l2.5-1.3l2-3.5l0.8-2.5l0.3-3.5l-1.5-2.3l-3.5-0.5l-1-2.8l-1.8-2l-3.8-1.3l-0.8-1l-0.3-6.3l2.8-6.6l3-0.8l2-1.8l2.8-1.3
	l3.8-3.8h3.8l1.5-2.3l-1.7-5.6l-1.4-0.8l-4.8-1.1l-1.2-1.2l-4.8-0.5l-1.1,1.6l-5.2-0.4l-2.1-0.7l-1.1-1.6l-3.2-2.3h-0.9l-2.3,3.8
	l-0.5,2.1l-1.2,2.1l-2,0.7l-2.5-0.9l-1.6-1.1l-4.1,1.8h-2.7l-1.8,1.1l-0.9,1.8l-4.3-1.2L574,389l-2-0.9l-1.6,1.1l-1.2,1.6l-2.5,0.2
	l-0.7,2l-1.2,2l-1.4,1.2l-10.5,0.2l-1.8,0.9l-0.5,2.1l-1.2,2l-1.8,1.1l-1.2,1.6l-2,1.2l-1.2,2l-3.9,2h-4.1l-1.6,1.1l-4.3-0.5
	l-2.5,0.5l-1.4,1.4l-2,6.3l-2.7,2.7l-1.8,1.1l-5.2,0.2l-2.3-0.5l-1.4-1.2l-2.3,0.4l-6.1,5.2l-2.5,0.5l-2.5-0.4l-2.9-1.4l-0.4-0.5
	l-1.6-1.4l-1.1,4.3l-0.9,1.8l-1.4,1.2l-0.7,1.6l-1.1-0.5v-5.4l-1.6-1.4l-4.6-0.9l-1.1-1.6l-2.3-0.7l-1.6,1.1l-3.8,7.5l0.4,6.6
	l-1.2,1.6l-4.5,1.2l-3.2,3.2l-3.8,9.8l-6.4,7l-4.3,1.4l-2.1,0.2l-1.8-1.6l-2.5-0.5h-5.4l-2.1,0.5l-9-3.3l-3.9,2.3h-7.6l-0.3,3.8
	l0.5,0.3l1.8,2l1.3,2.8l-0.3,3.5l-1.3,2.5l-2,1.8l-1.5,2.3l1,5.6l-0.5,2.3l0.5,2.8l-1.3,9.6l-1.3,2.5l-0.5,3.3l-1.5,2.5l1.8,2
	l-1.3,2.5l-0.3,2.3l7.3,7.8l2.5,1.3h3.3l2.5-1.3l2,0.5v3.3l-1.3,2.5l-2,1.8l-5.8,1.8L412.6,529.7L412.6,529.7z"/>
<path id="臺東縣" sodipodi:nodetypes="cssscsssssssscsssssssssssssssssssssssssssssssssssssssscssssssssssssssssssssssssssssssssscssscssssssssssssssssssssssssssscsssssssssssssssssssssssssssssssssssssssssssssssscsssssssssssssssssssscssssssssssssssssssssssssssssssscssssssssssssssssssssssssssssssssssssssssssssssssssssssscsssssssssssssssssssssssssccsssssssssscssssscssssssssssscssscsssssssscssssssssssssssssscssssscssssssscscssssssssssssssssssssssscsssssssssssssssssssssscssssssssssscsssssssssssscsssssscsssssssssscssssssscsssssscsssssssssssssssssssssssssssssscssssssscsssscssssssssssssc" class="st0" d="
	M669.9,646.8l-2.2,6.8v1.9l-1.4,0.9l-1.8,7l-0.1,5.8l-1.8,3.8l0.1,5.5l-1.1,5.6l-1.5,1h-1.9l-1.5,0.4l-1.2,1l-1.1,3.2l-0.8,1.2
	l-1.4,1.3l-0.6,1.4l-0.1,1.7l-1.2,1.1l-0.4,4.1l-1,1.2l-2.4,9.7l0.9,1.1l0.5,1.4l-0.8,1.2l-1.5,1.2l-1.4-0.2l-0.9-1.4l-1.1,0.5l1,1
	l0.1,1.4l-3,2l0.3,7.9l1.9,3.8l0.4,1.8l-0.2,3.7l-1.4,1.4l0.1,5.4l3,3.2l-0.9,2.9l-3.7,0.1l-1.2,1l-2.2,4.2l-1.3,0.6l-3.8,0.1
	l-0.9,1.2l-1.4,0.8v1.9l-0.8,1.2v1.9l-2,2.9l-1.4,4.9l-1,1.4l-0.9,5.7l-1.2,1.7l-0.2,1.6l-1.1,0.8l-1,1.1l-1,2.9l-1,1.6l-1.3,5.1
	l-0.8,0.9l-0.5,1.5v1.9l-3.3,3.4l-0.5,1.4l-1.8,0.1l-1.1,1l-0.9,1.5l-0.7,0.2l-0.2,3.2l-3.4,7.4l-2.2,2l-2.1,4.4l-0.6,3.2l-1.2,1
	l-1.5,0.4l-2.4,2.5l-0.1,3l-3.2-0.8l-1.4,0.5l-3.4,0.5l-5.8,4.8l-0.8,1.2l-0.2,1.6l0.6,1.3l1.8,2l0.4,1.3h-1.9l-0.8,1.2l0.6,1.2
	l1.3,0.7l1,1.1l-0.4,1.8l1.1,2.8l-0.5,1.7l-2.1,1.9l-1.7,0.2l-1.4,1.4l-1.3,8l-2.2,2l-2.8,1.2l-1.2,1l-0.8,1.2l-2.5,2l-0.8,1.1
	l-1.1,0.8l-1.5,0.6l-3.8,4.5l-2.7,1.5l-1.5,0.4l-1,0.9l-1.4,0.6l-1.9,0.3l-1,1l-1.8,0.1l-0.9,1.1l-2.4,1.4l-1,1l-2.7,1.2l-0.4,1.5
	l-1,1.2l-1.8,0.1l-1.1,1l-4.1,1.8l-1.1,1l-1.7,2.6l-0.9,3.2l-1.1,1.3l-0.2,1.6l-0.9,1.2l-0.1,1.8l-0.8,1.5l0.1,1.8l-0.2,0.6
	l-0.2,5.2l-0.8,1.5l-0.1,1.4l-2,2.8l-3.5,3.2l-0.9,1.3l-1.7,0.9l-0.8,1.2l-0.2,1.7l-0.9,1.2l-0.1,1.8l-0.7,1.6v1.9l-1.2,0.8v2.5
	l-2.9,6.8v1.9l-0.9,0.9v3.8l-2.2,4.2l0.1,2.1l-1.2,1.7l-0.5,3.5l-0.9,1.1l-0.2,3.5l-1,1.3l-0.4,1.8l-1.9,2.5l-0.5,1.4l-0.9,1.1
	l-3.6,10.1l-0.9,1.3l-0.5,5l-2.5,2.5l-2.9,9.1v3.5l-0.6,1.4l0.2,5.4l1.3,1.7v7.8l0.9,3.2l0.1,4.6l-3.5,1.2l-2,1.8l-3.3,1.3l-2.8-4.8
	l-3-0.8h-4l-1.3-2.8l-2.8-1l-2.3-1.5l-4.3,0.3l-0.5-2.3l0.8-3.3l1.8-1l-2.8-1l-1-2.5l-4.8-2.8l1.8-2.3l2.5-1.3l-0.3-7.6l-2.5-1.5
	l-1.3-2.5H452l-3.8-4l-3.5-1.8l4.8-14.6l6.6-1l1.3-2.8l-0.8-3.3l-2.8-2l-2.5-5.3l-4-2.5l-0.3-3l-1-3l4.3-3.3v-3.8l-4-8.1l-0.5-4.3
	l-1.8-1l-1-3l0.5-3.5l2.8-5.1l-1.3-2.8l1.5-2.3l1-2.8l-0.3-3.5l1-2.5l2-2l0.8-3l1.8-2l0.3-1l4-5.6l0.3-3.5l1.8-2.3l0.3-2.5l3.3,0.5
	l3.5-1.8l6.1-1.3l3-6.3l11.1-0.5l2-2.3l0.3-3.5l1.8-2l0.5-9.9l2-2l-1-2.3v-3.8l-1-3.3l-2.5-1.3l-3.3-0.3l-2.8-2.5l-0.8-1.5l-0.8-3
	v-3.8l0.5-1l0.7-6.8l-2.9-3.9l-5.4-0.4l-2.9-8.6l0.4-5l-1.4-1.4l-1.8-3.9v-5.4l1.1-4.3l10-12.9l0.7-1.8v-3.9l6.4-4.6l-1.4-4.3
	l-2.5-2.5l1.8-4.3l3.6-3.9l-1.1-22.5l3.2-2.1l2.1-5l3.6-1.8l-1.1-3.9v-3.9l1.4-3.9l-0.4-1.8l-1.1-0.7l2.9-3.6l3.6-1.4l6.8-5.7l5-6.4
	h3.9l7.9-2.1l2.9-2.9l8.4-3.6l0.9,2.5l3.8,4.8l-0.3,3.8l3.8,9.1l0.8,0.8l1.3,2.5h4.3l5.3,3.3l3.5,0.3l3.5,4l1.3,2.5l2.8,1.3h1
	l0.5-1.3l5.3-2.5l5.1,3.3l1.8,2.3l1.3,2.8v4.3l3.8,5.3v2.8l2.5,1.5l3,1l1.8,2.3l1,0.8l4.5,0.3l2,1.8l1.8,3.3l0.3,3.5l2,0.3l2.5-1.8
	l9.8-1.5l1-2.8v-11.4l-0.8-3.5l1-2.8l4.3-3.5l3-5.8l0.3-2.8l1.5-2.8v-3.8l2.3-1.8l1.5-6.1l1.3-2.5l2.3-1.5l1.8-2.3l0.5-8.8
	l12.1-18.4v-0.3l-3.3-1.8l-2-2.3l-0.5-4.5l0.3-0.3l7.3-13.1l4.3-3.5l2.8-1h3.8l3,0.8l2.3,1.8L669.9,646.8L669.9,646.8z"/>
<polygon id="高雄市" class="st0" points="536.5,679.5 521.3,668.4 518.3,667.6 519.3,664.1 521.1,661.6 524.4,660.6 523.9,658.3 
	525.4,656 528.7,655.5 530.2,653.2 530.2,646.1 527.9,644.6 527.3,642.9 526.4,642.6 525.1,636.3 522.6,634.5 522.1,634.5 
	512.2,631.7 511.2,632 508.7,633.3 502.1,634.3 499.8,635.8 493.5,637.1 489.2,640.6 487.7,643.1 484.9,644.4 482.6,646.2 
	479.3,646.7 477,649.2 475.2,653.5 473.4,655 472.4,657.8 470.6,659.8 470.3,663.3 467.5,664.3 463.7,664.3 461.7,666.3 
	460.2,668.8 456.2,672.8 449.1,673.3 446.8,679.1 441.7,681.6 440.7,684.4 434.1,684.9 432.8,691.5 424.7,691.2 422.4,689.2 
	414.6,688.9 413.3,700.5 414.6,703.3 416.6,705.8 416.6,709.6 415.9,710.9 416.2,711.3 418.5,713.1 417.7,716.1 413.7,721.2 
	413.4,725 405.3,735.9 403.5,736.2 397.9,743 397.6,746.5 396.3,749 395.8,752.5 394.5,753.3 394.2,753.6 393.7,756.6 377.3,768.5 
	373.8,774.1 364.7,780.7 364.4,784.2 358.8,784.5 358.5,788 357.5,791 354.5,791.8 350.7,800.6 350.2,803.9 349.2,805.2 347.7,806 
	346.2,812.3 343.2,812.3 340.7,810.8 337.2,811.1 334.2,812.1 326.1,820.4 322.3,820.7 312.2,817.4 304.4,816.6 302.9,818.6 
	300.9,818.3 298.1,817 297.6,817.8 294.1,817.8 290.3,813.8 288.5,812.8 286,814.1 277.6,810.9 275.9,811.6 272.7,814.6 273.9,816 
	274.7,820.2 277.7,826.5 277.7,828.4 278.4,828.4 278.6,826.8 279.2,825.5 281.1,825.4 283.2,830.5 283,832.1 281.1,832.3 
	279.7,831.4 278.9,830.2 278.5,831.1 278.6,832.9 279.4,835.1 279.5,836.9 281.3,840.3 281.3,841.7 290.2,862.8 290.4,864.6 
	291.9,868 293.3,869.8 296.4,876.4 296.7,876.1 298.3,879.7 302.8,885.3 300.7,887.8 296.8,883.9 299.3,890 295.3,893.9 
	295.1,898.1 294.6,899.7 295.1,901.5 297.9,904 298.8,905.4 298.8,907.3 299.7,908.3 299.6,910.2 298.5,911 299.3,912.1 
	300.8,912.9 302,916.3 304.7,918.9 305.3,920.3 306.6,922.1 307.7,922.9 308.7,924 309.4,925.4 310.4,926.4 313.2,930.9 
	310.5,931.4 310,932.1 310,932.7 311.6,933.1 314.9,933 315.5,933.1 318.8,936.5 320.2,937.3 322.5,939.8 323.1,941.2 327,944.5 
	328.2,945.2 327.9,945.8 334.7,951.4 336.5,952.2 339.3,954.7 344.7,956.3 344.9,955.7 344,941.2 344.9,938.3 345.8,937.2 
	347.6,937.6 350.1,935.4 352.1,929.6 352.4,926.1 354.2,920 354.2,916.2 350.7,911.9 351,893.7 353,887.6 354.8,885.3 356.6,878.5 
	356.3,874 357.1,872.7 356.8,857.5 358.1,854.7 358.6,851.4 359.9,848.9 361.4,839.1 363.9,837.8 365.7,838.6 370.2,838.9 
	371.7,841.2 375.5,841.2 378.3,839.9 384.4,841.4 387.9,841.1 390.2,839.3 392.7,836 393,834.7 397,831.4 398.3,830.9 404.9,826.4 
	408.4,826.1 411.2,824.1 414.2,823.3 417.2,824.6 419,826.6 419,830.4 421.8,831.7 424.6,831.7 425.6,830.7 428.6,829.9 
	431.9,825.1 434.9,824.3 438.7,824.3 447.3,829.6 453.6,837.2 456.4,838.7 459.2,837.2 461,834.9 466.1,832.4 467.6,830.1 
	470.9,830.1 471.9,830.4 474.4,831.7 474.7,833 477,832.2 481.5,835.2 482.2,828.4 479.3,824.5 473.9,824.1 471,815.5 471.4,810.5 
	470,809.1 468.2,805.2 468.2,799.8 469.3,795.5 479.3,782.6 480,780.8 480,776.9 486.4,772.3 485,768 482.5,765.5 484.3,761.2 
	487.9,757.3 486.8,734.8 490,732.7 492.1,727.7 495.7,725.9 494.6,722 494.6,718.1 496,714.2 495.6,712.4 494.5,711.7 497.4,708.1 
	501,706.7 507.8,701 512.8,694.6 516.7,694.6 524.6,692.5 527.5,689.6 536,686 536.8,683 "/>
<polygon id="臺南市" class="st0" points="415.2,713.5 414.2,714.3 411.7,713 405.4,714.3 402.4,713.3 398.9,710.8 395.1,716.4 
	392.1,717.2 388.8,716.9 384.5,713.9 378.4,712.1 377.4,709.6 380.7,704.8 379.9,702.3 377.9,699 377.4,696.5 378.7,694 
	377.7,691.2 377.4,687.7 378.9,684.9 381.2,683.1 381.5,680.1 380.5,677.3 377,677 373.2,675.7 372.2,673.4 374.7,671.6 
	374.4,668.3 366.6,667.8 366.6,664.5 369.1,662.7 370.6,660.4 368.6,658.6 366.3,659.9 363.3,659.1 360.8,657.1 357.5,656.1 
	355.8,653.8 352,652.8 351.7,653.3 349.4,654.8 346.1,655.1 344.1,653.1 340.8,653.6 335.5,656.1 327.9,656.1 321.8,659.6 
	321.5,659.9 320,662.4 313.7,662.1 314,665.1 306.9,665.6 306.4,668.9 305.1,671.4 303.3,672.9 300.8,671.4 298.8,673.4 
	299.8,676.2 299.3,678 289.7,682.8 288.9,685.8 285.6,690.6 282.6,691.9 278.1,690.6 276.8,688.6 276.8,691.4 274.3,691.1 
	272,689.1 271,686.1 267.2,685.3 264.4,683.5 263.6,682.5 256.4,681.2 252.5,688 253.1,689.3 254.1,689.4 253.5,691.3 252.2,692.2 
	252,694 254.8,695.7 256,695.9 257.6,695.4 255.4,698.6 252,699.8 251.1,701.1 251.3,702.9 252.1,704.4 249.6,706.8 249.2,708.5 
	248.4,709.9 246,709.3 245.4,710.6 244.6,714 244.7,717.8 239.8,727 239.3,730.5 237.8,733 238.9,731.6 240.4,731 241.9,730.9 
	242.5,738.9 243.7,739.8 245.2,740.4 244.3,745.7 241,747.1 240.8,747.1 237.3,748.3 234.1,751.2 230.8,752.7 230.6,756.2 
	230.8,756.7 231,760.4 231.8,761.3 233.7,761.3 233.6,767.2 234.4,769.6 236.5,772.1 236.8,772.9 238.7,772.2 240,771.3 241,770.1 
	241.1,770.9 240.9,772.7 245.6,775.5 246.5,775.7 248.3,777.3 251.5,779 255.4,783.2 256.9,784 262.2,788.9 262.3,789.4 
	265.7,792.7 268.1,796.4 269.7,796 272,793.9 273.4,793.1 272.4,795.3 271.5,796.4 271.5,797.7 274.8,798.6 273.1,800 271.2,799.9 
	270.2,798.5 269.3,798 270.1,799.9 271.3,801.4 271.8,803.1 271.3,812.7 270.8,814.1 271.8,816.1 273.1,815.3 275.1,813.3 
	276.6,812.7 276.5,813.3 285,816.4 287.5,815.1 289.3,816.1 293.1,820.1 296.6,820.1 297.1,819.3 299.9,820.6 301.9,820.9 
	303.4,818.9 321.3,822.9 325.1,822.6 331.4,816.8 333.2,814.3 336.2,813.3 339.7,813 342.2,814.5 345.2,814.5 346.7,808.2 
	348.2,807.4 349.2,806.1 349.7,802.8 353.5,794 356.5,793.2 357.5,790.2 357.8,786.7 363.4,786.4 363.7,782.9 372.8,776.3 
	376.3,770.7 386.7,763.6 389,761.1 392.8,758.8 393.3,755.8 393.6,755.5 394.9,754.7 395.4,751.2 396.7,748.7 397,745.2 
	402.6,738.4 404.4,738.1 412.5,727.2 412.8,723.4 416.8,718.3 417.5,715.3 "/>
<path id="桃園市" sodipodi:nodetypes="csssssssssssssssssssssssscssssssssssssssssscssssssssssscssssssssssssssssssssssssssssssssssscssssssssssssssssscssssssssssssssscsssssssssssssssssssssssssssscssscssssssssssssssssssssssssssssssssscssssssssssssssssssssssssssssscsssscssssssssssssssssscssssssssssssssssscsssssssssssssssssscssssssssssssssssssssssscsssssssssssssssssssssssssssssssc" class="st0" d="
	M664.6,240.1l-0.5,1.2l-1.6,0.5l-3.5,0.3l-1.3,0.8l-1.8,2.4l-0.6,5.1l-2.3,3l-0.4,1.5l-0.6,1.3l-0.4,1.5l-3.4,5.3l-0.3,1.6h-1.8
	l-1.4,0.6l-1.1,0.9l-1.5,1.9l-0.8,0.5l-1.8,0.4l-3.7-0.5l-1.5-0.9l-1.3-1.9h-0.9l-0.8-1l-0.5-1.5l-1.4-0.5v-3.9l0.8-1.4l0.4-1.8
	l-1.5-0.8l-1.6-0.3l-1.3-0.8l-0.1-3.8l1-1l0.1-1.9l0.5-1.5l-0.3-1.9l-1.6-0.8H624l-0.6-1.3l-0.3-1.8l-0.8-1.3l-1.1-0.9l-2.3-2.9
	l-2.9-1.4l-3,1l-1.4-0.5V230l1.1-1.1l0.6-1.3v-3.8l-2.1-0.4l0.1-4.4l0.5-1.4l0.9-1.3l0.4-1.6l-1.3-1.3l-0.6-1.5l-1.8-0.4l-1.3-1.3
	l-1.4-0.5l-1.8-0.1l-0.5-0.8h-0.3l-1.6-0.9l-1-1.3l-1.5-0.9l-0.4-0.6l-0.1-1.1l-0.9-2.4l-1.5-0.6l-2.1-0.4v-1.9l-1.5-0.5l-3.9,1.8
	H588l-5.7-4.5l-1.4-0.6l-1.1-1.1l-2-0.8v-1.4l-1.9-0.3l-1.8-0.6l-3.5-2.8L570,187l-3-1.9l0.4-1.6l1.8-2.8l-0.5-5.6l-1.4-1l-11.7-1
	l-0.8-1.5l-0.3-1.9l1-0.9l-1.4-0.8l-1.3,0.9l-1.6,0.6l-1.9,0.1l-1.6-1.3l-2-0.6h-1.9l-1.3-1.4l-3-1.1l0.1-3.7l0.6-1.5l-1.1-3
	l-0.1-1.8l-1.8-0.1l-2.1-2.1l-3.7-0.3l-4.3,1.3l-2.3-1.5l-4.3,2.5l-3.1-0.8l0.5-0.8l1.2-1l3-4l0.6-1.4l1.3-1.3l1.2-0.8l1.8-1.9v-3.7
	l-0.9-1.2l0.1-1.8l3-3.8l1-2.9l1.1-0.9l2.4-3.5l4.7-4.1l3.9-1.8l1.6-0.2l1.2-1.2l1.5-0.5l2.5-1.6l1.2-1.4l1.7-1l1.8-0.5l2.8-2.2
	l1.5-0.6h2l12.1-3.2l1.5-1.3l3.5-1.6l3.7-3.7l1.7-1l2.1-0.1l8.3-3.4h1.9l1-1l3.5-0.8l1.5,0.5l2.5,2l2.4,0.1l0.8,1.9l1.2,1.4l1.2,0.4
	l1.2,1.6l5,0.5l9.3,4.5l-0.5,3.6l2,1.8l5.2,1.2h5.4l1.2,0.9l1.8,2.1l0.5,2.3v0.7l-0.9,1.8l0.4,2.3l1.2,1.4l2.3,1.6l-0.9,1.6l-2,1.2
	l-2,0.7l2.1,1.6l0.2,2.1l-1.6,1.1l-2.1,0.7l-2,3.6l-2.9,2l-11.2-0.4l-1.8,0.9l-0.5,2.1l1.1,2l-0.5,5l-1.4,1.4l-0.9,2l1.2,2.3
	l2.1,0.2l1.6,1.2l-2.1,1.4l-1.2,1.4l-0.9,2l0.9,4.3l4.5,2.7l3.4,5.2l-1.2,1.6l0.4,2.1l2.7,1.8l-1.6,1.2l-4.6,0.9l-0.2,2.1l2.5,0.4
	l1.6-1.2l1.6,1.6l1.8,1.1l2.9,0.7l2.7-0.2l2-1.1l5.4-0.4l1.2,0.7l0.4,0.9l1.4,1.4l0.7,2l2.9,2.9l1.6,0.9l1.6,1.8l0.2,2.5l0.9,2.5
	l2.3,0.7v2.7l-1.6,1.1l-1.1,1.6l-3.2,2.7l-1.1,2l0.4,2.3l0.9,1.8v1.1l2,5l3.2,3l-0.5,2l2.5,1.1l0.2,1.8l2.5,0.7l1.4,2l2,1.4l0.5,5
	L664.6,240.1L664.6,240.1z"/>
<path id="基隆市" sodipodi:nodetypes="ccssssssssscssssssssssssssssssssssssssscssssssssssssssssssssssssssscssssssssssssssssssssssscsss" class="st0" d="
	M761.3,90.6l0.1-1.2l-1.1-1.1l0.5-3.4L759,85l-2.4,1.5l-2.2-2l-1.9-0.2l-0.8-0.6v-2.1l-1.6-0.4l-0.8,1.4l-1.5,0.4l-0.4-1.5h-1.3
	l0.5,1.5l1.4,2l-1.8,2.2l-2.8,2l-1.2,0.1l2.3-2.2l-0.8-1.4v-3l-1.5-0.1l-1.4-0.8l-1.8-0.2l-2-2h-3.9l-1.1-0.8l0.3-1.4l-0.4-0.9
	l-1.8,1.2l-2,0.7L727,80l-2.3,0.5l-1.2,1.6l-4.1,1.8l-2.5,0.2l-2,0.7l-1.8,1.2l-4.8,0.5v2.7l1.1,2l2.3,0.7l1.4,1.6l0.2,2.5l3,6.8
	l2.3,1.6l1.6,2.1l2.3,0.5l1.4-1.2v2l1.6,1.8l7,1.8l5.4,4.6l5.2,0.4l4.6-2.3l2.5-0.2l1.1-1.8l0.7-2.1l-4.6-4.5v-4.8l-0.5-2.1l2.3-0.5
	l2.9-3l2.5,0.5l1.8,1.2l0.9,0.2l1.8-2.9l1.4-1.4L761.3,90.6L761.3,90.6z"/>
<polygon id="新北市" class="st0" points="717.1,128.7 710.3,128.3 708.2,128.8 706.6,129.9 701.6,129.5 699.8,130.6 698.6,132.6 
	698.6,134.9 699.8,139 699.6,141.1 700,143.6 704.8,145.9 704.6,147.7 701.7,147.7 699.6,148.6 689.6,147.5 685.8,145 684.7,140.7 
	682.2,140.5 679.9,138.9 678.7,136.8 678.7,134.1 678,132.1 676.4,130.9 673.5,129.7 672.3,129.9 671.1,131.7 669.1,132.8 667,133 
	665.9,130.9 665.4,125.7 666.3,123.7 668.1,122.1 670.8,118.4 670.6,110.2 669.2,107.5 665.6,104.1 659.9,103.4 658.1,102.2 
	657.4,99.9 657.8,97.6 659.6,96.5 659.6,93.8 660.8,92.4 661.2,91.7 662.4,90.5 663.6,87.8 665.6,86.9 666.5,84.6 669.5,81 
	671.5,80.1 674,79.9 675.6,78.8 676.5,76.5 680.3,74.4 681.2,72.4 683.2,71.5 685.7,67.6 687.1,69.2 689.1,72.8 693.7,72.4 
	693.7,75.1 693,77.1 693,79.8 695.9,82.7 696.1,87.9 697.2,89.5 700.1,92 700.6,93.8 699.2,95.4 698.7,97.7 706.4,104.3 
	706.9,108.9 704.6,113.7 703.5,114.9 704.9,116.3 705.3,118.3 704.1,119.9 705,121.9 709.8,125.5 713.7,127.3 716,126.6 
	717.6,127.3 "/>
<g>
	<path class="st0" id="臺中市" d="M655.4,339.4l-1.6-1.1l-1.1-1.8l-2.1-1.1l-7.1,0.9l-1.8,0.9l-2.3,0.4l-1.6,1.2l-1.2,1.6l-2.7,0.4l-1.8-0.9
		l-4.1-7h-4.8l-2-0.7l-2.7-2.7l0.9-7.1l-0.5-2.1l-0.9-1.8l-1.2-1.4l-0.4-0.2l-1.7,0.9l-0.6,1.4l-1.3,0.8l-5.8-0.1l-1.3,0.6l-6.5-0.2
		l-0.1,0.8l-1.8,0.9l-2,1.6l-1.4,1.8l-0.2,2.5l-3.4,5.5v2.7l-2.1,0.5h-2.7l-1.8-2.5l0.9-1.4l-2.7-1.1l-2,0.9l-0.7,2.1l-1.2,1.8
		l-2.3,0.7l-4.8,6.8l-2,0.7h-5.4l-1.8,1.2l-0.7,2l-0.7,0.2l-2,2.1l-0.4,2.5l-2.1,0.5l-3.4,2.9l-2.1,0.5l-5-0.5l-4.5,1.6l-5.4,6.8
		l-2.7,0.2l-2-1.1l-3.2-3l-0.4-2.5l-1.8-1.2l-2.7-3.9l-1.6,0.4h-2.7l-2-0.9l-5-0.4l-6.1-2.1l-4.8-0.2l-2.1,0.9l-1.4,1.4v2.7l0.9,2
		l0.4,5l-0.9,2l-1.8,1.4l-2.1,0.7l-10.4-0.4l-2,0.9h-5.4l-5.2-1.6l-3.2-3l-1.1-2l-1.6-1.2l-11.2-2.1l-3.4-2.9l-2.5-0.7l-1.4-2
		l-3.6-2l-1.4-1.6l-2.1-0.7l-1.2-1.6l-0.9-0.4l-3-0.4l-1.2-1.8l-3.2-2.1l-7.5-9.6h0.1l-0.9-1.8l-4.5-1.8l-2.3-3.8l-0.4-2l-3.6-4.7
		l-1.7,0.4l-0.2,2.3l-9.1,12.6l-1.9,4.7l0.2,3.8l-0.1,0.5l-1.2,1.6l-0.5,1.4L393,345l-1,1.8l-4.7,3.2l0.1,1.4l0.5,1.2l0.1,2.1
		l-0.9,1l-2.4-0.8l2.8,1.3l0.5,1.2l-1,1.4l-0.9,0.8l-2.2-2.9l-0.9,0.5l-1.1,1.2l-2.2,1.2l0.1,1.8l-0.8,1.3l-2.8,1.6l-0.9,1.4
		l4.2,5.7l-0.1,1.6l-0.9,1.3l-0.4,1.5l-1-1.9l0.2-1.6l-1.5,1.6l-1.5-0.1l-0.4-1.9l0.9-1.8l-0.1-1.8l-1.3,1.2l-2.2,6.4l1.6,1.3
		l0.6,1.4l0.6,0.5l0.1-0.2l1.8,1.1v1.9l-0.6,1.5l-3.9,5.7l-1.2,0.9l-1.5,3.8l0.1,2.5l4.4,2l2.1,3.4l0.4,2.3l1.1,2.7l0.4,2.7l3.2,3.4
		l-1.2,1.6l-0.2,2.5l1.2,1.6l1.8,1.2h0.5l1.4,2.3l2,0.9l1.6,1.2l2.1,0.5l2,1.1l10.2,2.3h2.5l1.6,1.2l0.4,0.9v5.4l1.6,2.1l1.8,1.4
		v2.9l-0.9,2l1.4,7l2.5,0.2l1.6,1.4l3.6-0.4l1.1-0.7l5.7,4.8l8.9,3.2l2.1-0.5h5.4l2.5,0.5l1.8,1.6l2.1-0.2l4.3-1.4l6.4-7l3.8-9.8
		l3.2-3.2l4.5-1.2l1.2-1.6l-0.4-6.6l3.8-7.5l1.6-1.1l2.3,0.7l1.1,1.6l4.6,0.9l1.6,1.4v5.4l1.1,0.5l0.7-1.6l1.4-1.2l0.9-1.8l1.1-4.3
		l1.6,1.4l0.4,0.5l2.9,1.4l2.5,0.4l2.5-0.5l6.1-5.2l2.3-0.4l1.4,1.2l2.3,0.5l5.2-0.2l1.8-1.1l2.7-2.7l2-6.3l1.4-1.4l2.5-0.5l4.3,0.5
		l1.6-1.1h4.1l3.9-2l1.2-2l2-1.2l1.2-1.6l1.8-1.1l1.2-2l0.5-2.1l1.8-0.9l10.5-0.2l1.4-1.2l1.2-2l0.7-2l2.5-0.2l1.2-1.6l1.6-1.1
		l2,0.9l1.2,1.4l4.3,1.2l0.9-1.8l1.8-1.1h2.7l4.1-1.8l1.6,1.1l2.5,0.9l2-0.7l1.2-2.1l0.5-2.1l2.3-3.8h0.9l3.2,2.3l1.1,1.6l4.6,1.1
		h2.7l1.1-1.6l4.8,0.5l1.2,1.2l6.4,1.8l1.8-1.4l0.9-1.8l-0.2-2.5l3.8-1.6l1.1-1.6l2.7,0.2l1.4-1.2l0.5-2.3l-0.9-4.6l1.2-2l2.3-0.9
		l1.6-1.1l1.8-4.1l1.4-1.6h2.7l1.8-1.2l1.4-1.8l2.1-4.3l0.7-7.3l0.9-2l2.3-1.2l1.2-1.5L655.4,339.4z"/>
</g>
<path id="臺北市" class="st0" d="M818.2,126l-1.4,0.1l-1.1,1l-1.2-2.2l-1.4-0.5l-0.9-1l-1.5-0.3l-1.8,0.1l-0.8,0.8l-1.7,1.1
	l-4-0.4l-4.9-4l-0.4-1.4v-5.7l-0.6-0.8l1.4-1l-0.2-0.6l-4.2-4.2l-1.3-3l1.5-4.5l1.5-1l0.4-1.5l-0.6-1.2l-1-0.9l-0.6-0.9l0.8-1.2
	l1.2-0.8v-1.9l-1.8-0.1l-1.7,0.4l-1,1l-3.4,1.2h-1.9l-5.9-1.3l-1.5,0.6l-1.4-0.6l-4.4-0.1l-2.9-0.9l-1.4,0.8l-1.3,1.2h-1.6l-1-1.2
	l0.4-1.6l0.8-1.3l0.6-0.6h-1.9l-1.6,0.6h-1.8v1.2l-0.9,2.1l-1.4,1.4l-1.8,2.9l-0.9-0.2l-1.8-1.2l-2.5-0.5l-2.9,3l-2.3,0.5l0.5,2.1
	v4.8l4.6,4.5l-0.7,2.1l-1.1,1.8l-2.5,0.2l-4.6,2.3l-5.2-0.4l-5.4-4.6l-7-1.8l-1.6-1.8v-2l-1.4,1.2l-2.3-0.5l-1.6-2.1l-2.3-1.6
	l-3-6.8l-0.2-2.5l-1.4-1.6l-2.3-0.7l-1.1-2v-2.7l4.8-0.5l1.8-1.2l2-0.7l2.5-0.2l4.1-1.8l1.2-1.6l2.3-0.5l1.1-1.6l2-0.7l1.5-1.1
	l-2.9-2.1l-1.5-0.5l-1.6-1.1l-0.5-1.3l0.7-1.5l2.9-1.4l-0.3-0.8l-1.1-1l1-1.1l1.4-0.8l1.2-1.1l-0.4-1.1l-4.5,3.9l-6.3,0.4l-4.9-5.1
	l-0.2-1.2l1.2-1.3l-0.6-1.2h-2l-1.4-0.6l-2-2l0.5-3.8l-0.4-1.8l-0.7-1.2l-1.1-1l-3.7-5.2l-3.2-1l-1.8-2.3l-1.4-0.8h-1.9l-1.4-0.9
	l-1-1.1l-1.2-0.8l-0.4-0.1l-1.3,0.2l-1,1.1l-0.5,1.5h-6.1l-1.9-2l-1.1,0.8V38l-1.1,0.8l-5.1,0.8l-0.6-1.6l-0.6,0.6l-0.2,1.8
	l-1.4,1.1l-3.4,0.9l-1.4,1l-1.7,0.5l-3.5,7.4l-0.6,0.1l-3.7-0.5l-1.2,1l-0.1,1.8l-1,1.1l-0.4,1.5l-1.3,2.5l-0.2,1.9l-0.9,1.3
	l-1.3,0.8l-2.1,2.2l-0.2,1.9l-2,3.9l-1.9,0.5l-1.1-0.1l0.2,1.1l3.4,3.2l1.9,0.1l3.5,1.7l1.5,2.6l1.4,1l1,1.2l2.2,4.4l0.2,7.6
	l-0.9,0.8l-0.2-1.6l-0.8-1.7l-0.2-1.6l-2-2.7l-0.1-1.8l-0.7-1.8l-2.2-2.3l-5.8-3.8H643l-1.1,1l-0.6,2.4l-3.7,3.5L636,85l-2.8,1.7
	l-1.5,0.4l-4.2,2.8l-5.2,1.6l-1.3,0.9l-12,0.1l-2.4,2.3l-1,1.4l1.8,2.5l1.2,0.4l1.2,1.6l5,0.5l9.3,4.5l-0.5,3.6l2,1.8l5.2,1.2h5.4
	l1.2,0.9l1.8,2.1l0.5,2.3v0.7l-0.9,1.8l0.4,2.3l1.2,1.4l2.3,1.6l-0.9,1.6l-2,1.2l-2,0.7l2.1,1.6l0.2,2.1l-1.6,1.1l-2.1,0.7l-2,3.6
	l-2.9,2l-11.2-0.4l-1.8,0.9l-0.5,2.1l1.1,2l-0.5,5l-1.4,1.4l-0.9,2l1.2,2.3l2.1,0.2l1.6,1.2l-2.1,1.4l-1.2,1.4l-0.9,2l0.9,4.3
	l4.5,2.7l3.4,5.2l-1.2,1.6l0.4,2.1l0.2,0.2l2.5,1.6l-1.6,1.2l-4.6,0.9l-0.2,2.1l2.5,0.4l1.6-1.2l1.6,1.6l1.8,1.1l2.9,0.7l2.7-0.2
	l2-1.1l5.4-0.4l1.2,0.7l0.4,0.9l1.4,1.4l0.7,2l2.9,2.9l1.6,0.9l1.6,1.8l0.2,2.5l0.9,2.5l2.3,0.7v2.7l-1.6,1.1l-1.1,1.6l-3.2,2.7
	l-1.1,2l0.4,2.3l0.9,1.8v1.1l2,5l3.2,3l-0.5,2l2.5,1.1l0.2,1.8l2.5,0.7l1.4,2l2,1.4l0.5,5l1.5,0.6l4.8,0.3l2.3-1.4l4.6-0.7l5.2-3.4
	l0.5-2.5l5.9-3.2l2.7-0.2l2.1-0.7l1.1-1.6l1.6-1.2l2.3-0.4l1.5-4.7v-2.7l-0.7-2.1l-1.4-1.4l-0.4-2.5l2-1.6l0.4-2.3l-0.2-2.5l0.9-2
	l2.1-0.5l1.8-1.1l2.5,0.7l2.3-1.8l0.5-2.1l-1.4-1.2l10.5-1.2l3.6-1.8l1.6,1.8l0.7-2l2.1-0.7l1.1-1.8l1.8-1.6l0.5-1.7l4.8-2.6
	l2.7-3.2l2-1.1l2.3-0.4l7.5,1.1l1.8-0.9l2.5-0.5l-0.2-1.2l0.2-2.1l1.4-1.8l0.2-2.1l-0.5-2.3l2.5-3.2l3-2.5l2.3-0.4l5.4,0.4l5.9-3.9
	l1.4-4.3l-4.1-5.9l0.9-1.8l0.5-2.1l1.8-1.4l5.2,0.4l2.3,0.9h2.9l1.4-1.6l6.8-4.8l5.4-0.4l6.2-2.3l2.5-0.2l3.7,0.7l0.2-0.8l0.8-1.5
	l1.8-0.1l0.8-1.1l2.8-1.3l0.8-1.3l1.9-0.2l0.7-1.4l0.1-1.5L818.2,126z M717.1,128.7l-6.8-0.4l-2.1,0.5l-1.6,1.1l-5-0.4l-1.8,1.1
	l-1.2,2v2.3l1.2,4.1l-0.2,2.1l0.4,2.5l4.8,2.3l-0.2,1.8h-2.9l-2.1,0.9l-10-1.1l-3.8-2.5l-1.1-4.3l-2.5-0.2l-2.3-1.6l-1.2-2.1v-2.7
	l-0.7-2l-1.6-1.2l-2.9-1.2l-1.2,0.2l-1.2,1.8l-2,1.1L667,133l-1.1-2.1l-0.5-5.2l0.9-2l1.8-1.6l2.7-3.7l-0.2-8.2l-1.4-2.7l-3.6-3.4
	l-5.7-0.7l-1.8-1.2l-0.7-2.3l0.4-2.3l1.8-1.1v-2.7l1.2-1.4l0.4-0.7l1.2-1.2l1.2-2.7l2-0.9l0.9-2.3l3-3.6l2-0.9l2.5-0.2l1.6-1.1
	l0.9-2.3l3.8-2.1l0.9-2l2-0.9l2.5-3.9l1.4,1.6l2,3.6l4.6-0.4v2.7l-0.7,2v2.7l2.9,2.9l0.2,5.2l1.1,1.6l2.9,2.5l0.5,1.8l-1.4,1.6
	l-0.5,2.3l7.7,6.6l0.5,4.6l-2.3,4.8l-1.1,1.2l1.4,1.4l0.4,2l-1.2,1.6l0.9,2l4.8,3.6l3.9,1.8l2.3-0.7l1.6,0.7L717.1,128.7z"/>
<path id="嘉義縣" class="st0" d="M503.6,634.9l-2.8-1l-11.1-1l-5.6,2.3l-11.4-1.3l-2-2.3l-2.5-5.8l-0.5-7.3l-2.3-2l-1.5-2.5v-3.8
	l2.8-2.3l0.8-3.3l-0.3-8.6l-1.3-2.5l-3.3-0.8h-3.8l-11.6-4.3l-6.4,0.6l-1.6,2.4l1.5,2.3l0.8,3v3.5l-1.3,2.5l-3.5-0.5l-2.8-1.5
	l-3.5-0.3l-2.8,1l-3,0.3l-2-2l-3.3,0.8l-2,2l-2-3.3l0.5-3.8l-5.6-0.3l-1.8,2l-2.8,1.5l-13.9-1.5l-3-1l-2.3-1.8l-3.5-0.3l-2.5-1.5
	l-1.5-2.3l-4.3-3.5l-1.5-5.1l-5.1-1.3l-5.3,2.8h-7.6l-5.8,2.3l-2.8-1l-2.3-1.8l-2.8-1.3l-1.8,2.3l-2.3,1.8l-1,2.8l-5.8,1.8l-1,3
	l-2.5,1.3l-4-0.3l-1.5,2.5l-1.8,6.1l-2.8-1.5l-6.3,2.5l-1.8,2l-0.8,3.5l-4.8,2.8l-1,2.8l-3.5-1.3v-3.3h-3.3l-2,2l0.8,3l-0.3,3.5
	l-1.8,2.3l-2.3,1.8l-3.8-0.5l-6.3-2.3l-2.8,1.3h-3.8l-1.5-2.3h-3.8l-5.8-2.3l-3.9-0.1l-1.6,0.9l-0.4,9.1l0.9,1.5l1.8,0.6l5.7-0.4
	l1.4,0.6v1.9l-0.8,1.4l-0.5,1.8l-0.9,1.1v2l-0.8,1.5l0.4,2l1.6,0.9h1.7l-2.2,4.2l-0.1,1.8l1.5,0.4v1.7l-1,3.2l0.1,1.9l0.8,1.5l1.2,1
	l1.4-1.2l0.6,0.9l0.2,3.5l-1,1.7l-1.3,5l-3.7,1.5l-1.4-0.1l-3,6.9l-0.2,5.1l0.4,1.5h3.8l1.6,0.6l0.2,1.7l2.7,1.6l3.8,0.8l1,3l2.3,2
	l2.5,0.3v-2.8l1.3,2l4.5,1.3l3-1.3l3.3-4.8l0.8-3l9.6-4.8l0.5-1.8l-1-2.8l2-2l2.5,1.5l1.8-1.5l1.3-2.5l0.5-3.3l7.1-0.5l-0.3-3
	l6.3,0.3l1.5-2.5l0.3-0.3l6.1-3.5h7.6l5.3-2.5l3.3-0.5l2,2l3.3-0.3l2.3-1.5l0.3-0.5l3.8,1l1.8,2.3l3.3,1l2.5,2l3,0.8l2.3-1.3l2,1.8
	l-1.5,2.3l-2.5,1.8v3.3l7.8,0.5l0.3,3.3l-2.5,1.8l1,2.3l3.8,1.3l3.5,0.3l1,2.8l-0.3,3l-2.3,1.8l-1.5,2.8l0.3,3.5l1,2.8l-1.3,2.5
	l0.5,2.5l2,3.3l0.8,2.5l-3.3,4.8l1,2.5l6.1,1.8l4.3,3l3.3,0.3l3-0.8l3.8-5.6l3.5,2.5l3,1l6.3-1.3l2.5,1.3l2-1.8v-3.8l-2-2.5
	l-1.3-2.8l1.3-11.6l7.8,0.3l2.3,2l8.1,0.3l1.3-6.6l6.6-0.5l1-2.8l5.1-2.5l2.3-5.8l7.1-0.5l4-4l1.5-2.5l2-2h3.8l2.8-1l0.3-3.5l1.8-2
	l1-2.8l1.8-1.5l1.8-4.3l2.3-2.5l3.3-0.5l2.3-1.8l2.8-1.3l1.5-2.5l4.3-3.5l6.3-1.3l2.3-1.5l6.6-1l2.5-1.3l1.2-0.3L503.6,634.9z"/>
</svg>
